# xmcd CD Database Entry
#
# Track frame offsets:
# 151
# 15599
# 35499
# 49517
# 64320
#
# Disc length: 1093 seconds
#
# Revision: 3
# Processed by: cddbd v1.4b42PL1 Copyright (c) Steve Scherf et al.
# Submitted via: tcd 2.0b
#
DISCID=39044305
DTITLE=Yoshihisa Tomobechi - mop - modern organic products
DYEAR=1900
DGENRE=
TTITLE0=A paradise above the clouds
TTITLE1=A visit to Plateau with rododendrons in bloom
TTITLE2=Path to singing brezees
TTITLE3=A visit to Plateau with black lilies in bloom
TTITLE4=Passing along snowliad roads
EXTD=
EXTT0=
EXTT1=
EXTT2=
EXTT3=
EXTT4=
PLAYORDER=
